<svg xmlns="http://www.w3.org/2000/svg" viewBox="0 0 600 400" width="100%" height="100%">
  <defs>
    <linearGradient id="card-bg3" x1="0" y1="0" x2="1" y2="1">
      <stop offset="0%" stop-color="#141814" />
      <stop offset="100%" stop-color="#101310" />
    </linearGradient>
  </defs>

  <rect width="600" height="400" fill="url(#card-bg3)" />
  <rect x="15" y="15" width="570" height="370" fill="none" stroke="#2d382c" stroke-width="1" />

  <!-- Header -->
  <text x="35" y="45" font-family="'Space Mono', monospace" font-size="10" fill="#f2b84b" letter-spacing="1">PHYTOSCAN // COMPUTER VISION INFERENCE</text>
  <text x="565" y="45" text-anchor="end" font-family="'Space Mono', monospace" font-size="9" fill="#71826f">YOLOv8 + RESNET</text>
  <line x1="35" y1="58" x2="565" y2="58" stroke="#283327" stroke-width="1" />

  <!-- Specimen Canvas (Leaf shape with vein network) -->
  <g transform="translate(60, 90)">
    <!-- Dark Specimen Backdrop -->
    <rect x="0" y="0" width="480" height="230" fill="#131913" stroke="#2c382b" stroke-width="1" />
    
    <!-- Stylized Botanical Leaf Geometry -->
    <path d="M 120 180 C 100 70 240 30 360 40 C 390 120 300 200 120 180 Z" fill="#1b291d" stroke="#365039" stroke-width="2" />
    <!-- Leaf Primary Vein -->
    <path d="M 120 180 Q 240 120 360 40" fill="none" stroke="#4c7351" stroke-width="2" />
    <!-- Secondary Veins -->
    <line x1="170" y1="160" x2="150" y2="110" stroke="#365039" stroke-width="1.5" />
    <line x1="220" y1="135" x2="250" y2="70" stroke="#365039" stroke-width="1.5" />
    <line x1="270" y1="105" x2="250" y2="160" stroke="#365039" stroke-width="1.5" />
    <line x1="310" y1="75" x2="330" y2="120" stroke="#365039" stroke-width="1.5" />

    <!-- YOLO Bounding Box 1 (Detected Pathogen) -->
    <rect x="180" y="55" width="130" height="95" fill="none" stroke="#f2b84b" stroke-width="2" stroke-dasharray="4,2" />
    <rect x="180" y="38" width="125" height="17" fill="#f2b84b" />
    <text x="185" y="50" font-family="'Space Mono', monospace" font-size="8" font-weight="700" fill="#101310">EARLY_BLIGHT 94.2%</text>
    <circle cx="245" cy="100" r="14" fill="#b84c3b" opacity="0.4" />
    <circle cx="245" cy="100" r="5" fill="#f2b84b" />

    <!-- YOLO Bounding Box 2 (Secondary Lesion) -->
    <rect x="280" y="105" width="90" height="70" fill="none" stroke="#b8d18d" stroke-width="1.5" />
    <rect x="280" y="90" width="85" height="15" fill="#b8d18d" />
    <text x="284" y="101" font-family="'Space Mono', monospace" font-size="7" font-weight="700" fill="#101310">SEPTORIA 88.5%</text>

    <!-- Scan crosshairs -->
    <line x1="240" y1="30" x2="250" y2="30" stroke="#f2b84b" stroke-width="1" />
    <line x1="245" y1="25" x2="245" y2="35" stroke="#f2b84b" stroke-width="1" />
  </g>

  <!-- Metrics Bar -->
  <text x="35" y="365" font-family="'Space Mono', monospace" font-size="8" fill="#b8d18d">CVAT ANNOTATED // 78% VALIDATION ACCURACY // AGRITHON 2025</text>
</svg>
